<mxfile host="app.diagrams.net" modified="2023-09-11T14:18:27.080Z" agent="Mozilla/5.0 (Macintosh; Intel Mac OS X 10_15_7) AppleWebKit/537.36 (KHTML, like Gecko) Chrome/116.0.0.0 Safari/537.36" etag="7Lctgg_BYBqeAvQu1CPf" version="21.7.4" type="github">
  <diagram id="3228e29e-7158-1315-38df-8450db1d8a1d" name="Page-1">
    <mxGraphModel dx="1247" dy="682" grid="0" gridSize="10" guides="1" tooltips="1" connect="1" arrows="1" fold="1" page="1" pageScale="1" pageWidth="1200" pageHeight="500" background="#EFF1F3" math="0" shadow="0">
      <root>
        <mxCell id="0" />
        <mxCell id="1" parent="0" />
        <mxCell id="nzwpzUQgBmsU5mZzszNc-6" value="&lt;div style=&quot;font-family: Menlo, Monaco, &amp;quot;Courier New&amp;quot;, monospace; line-height: 24px;&quot;&gt;&lt;div style=&quot;&quot;&gt;&lt;font color=&quot;#333333&quot; style=&quot;font-size: 30px;&quot;&gt;tag&lt;/font&gt;&lt;/div&gt;&lt;/div&gt;" style="rounded=1;whiteSpace=wrap;html=1;strokeWidth=5;fontSize=30;strokeColor=none;fillColor=#9AC7BF;align=center;" parent="1" vertex="1">
          <mxGeometry x="159" y="1176" width="66" height="74" as="geometry" />
        </mxCell>
        <mxCell id="nzwpzUQgBmsU5mZzszNc-7" value="&lt;div style=&quot;font-family: Menlo, Monaco, &amp;quot;Courier New&amp;quot;, monospace; line-height: 24px;&quot;&gt;&lt;div style=&quot;&quot;&gt;&lt;font color=&quot;#333333&quot; style=&quot;font-size: 30px;&quot;&gt;value&lt;/font&gt;&lt;/div&gt;&lt;/div&gt;" style="rounded=1;whiteSpace=wrap;html=1;strokeWidth=5;fontSize=30;strokeColor=none;fillColor=#FDD276;align=center;" parent="1" vertex="1">
          <mxGeometry x="282" y="1176" width="109" height="74" as="geometry" />
        </mxCell>
        <mxCell id="nzwpzUQgBmsU5mZzszNc-8" value="&lt;div style=&quot;font-family: Menlo, Monaco, &amp;quot;Courier New&amp;quot;, monospace; line-height: 24px;&quot;&gt;&lt;div style=&quot;&quot;&gt;&lt;font color=&quot;#333333&quot; style=&quot;font-size: 30px;&quot;&gt;tag&lt;/font&gt;&lt;/div&gt;&lt;/div&gt;" style="rounded=1;whiteSpace=wrap;html=1;strokeWidth=5;fontSize=30;strokeColor=none;fillColor=#9AC7BF;align=center;" parent="1" vertex="1">
          <mxGeometry x="391" y="1176" width="73.36" height="74" as="geometry" />
        </mxCell>
        <mxCell id="nzwpzUQgBmsU5mZzszNc-9" value="&lt;div style=&quot;font-family: Menlo, Monaco, &amp;quot;Courier New&amp;quot;, monospace; line-height: 24px;&quot;&gt;&lt;div style=&quot;&quot;&gt;&lt;font color=&quot;#333333&quot; style=&quot;font-size: 30px;&quot;&gt;value&lt;/font&gt;&lt;/div&gt;&lt;/div&gt;" style="rounded=1;whiteSpace=wrap;html=1;strokeWidth=5;fontSize=30;strokeColor=none;fillColor=#FDD276;align=center;" parent="1" vertex="1">
          <mxGeometry x="464.3599999999999" y="1176" width="98.64" height="74" as="geometry" />
        </mxCell>
        <mxCell id="hhmZNT4cyZmR0nEcOgbV-8" value="&lt;div style=&quot;font-family: Menlo, Monaco, &amp;quot;Courier New&amp;quot;, monospace; line-height: 24px;&quot;&gt;&lt;div style=&quot;&quot;&gt;&lt;font color=&quot;#333333&quot; style=&quot;font-size: 30px;&quot;&gt;len&lt;/font&gt;&lt;/div&gt;&lt;/div&gt;" style="rounded=1;whiteSpace=wrap;html=1;strokeWidth=5;fontSize=30;strokeColor=none;fillColor=#F19C99;align=center;" parent="1" vertex="1">
          <mxGeometry x="225" y="1176" width="57" height="74" as="geometry" />
        </mxCell>
        <mxCell id="U-DJsKMkMCvAjCsMOjJg-2" value="&lt;div style=&quot;&quot;&gt;&lt;font style=&quot;font-size: 39px; background-color: initial;&quot; color=&quot;#4a919b&quot;&gt;10&amp;nbsp;&lt;/font&gt;&lt;font style=&quot;font-size: 39px; background-color: initial;&quot; color=&quot;#f19c99&quot;&gt;3&lt;/font&gt;&lt;font color=&quot;#4a919b&quot; style=&quot;font-size: 39px; background-color: initial;&quot;&gt;&amp;nbsp;&lt;/font&gt;&lt;font style=&quot;font-size: 39px; background-color: initial;&quot; color=&quot;#c89932&quot;&gt;50 46 53&lt;/font&gt;&lt;/div&gt;" style="text;html=1;strokeColor=none;fillColor=none;align=left;verticalAlign=middle;whiteSpace=wrap;rounded=0;" parent="1" vertex="1">
          <mxGeometry x="155" y="1115.5" width="243" height="50" as="geometry" />
        </mxCell>
        <mxCell id="8Wo9BOlvC_cUprFf0G_a-1" value="&lt;div style=&quot;&quot;&gt;&lt;font style=&quot;font-size: 39px; background-color: initial;&quot; color=&quot;#4a919b&quot;&gt;24&amp;nbsp;&amp;nbsp;&lt;/font&gt;&lt;font style=&quot;font-size: 39px; background-color: initial;&quot; color=&quot;#c89932&quot;&gt;18&lt;/font&gt;&lt;/div&gt;" style="text;html=1;strokeColor=none;fillColor=none;align=left;verticalAlign=middle;whiteSpace=wrap;rounded=0;" parent="1" vertex="1">
          <mxGeometry x="416" y="1115.5" width="124" height="50" as="geometry" />
        </mxCell>
        <mxCell id="8Wo9BOlvC_cUprFf0G_a-19" value="" style="shape=curlyBracket;whiteSpace=wrap;html=1;rounded=1;labelPosition=left;verticalLabelPosition=middle;align=right;verticalAlign=middle;rotation=-90;strokeWidth=5;strokeColor=#4A919B;" parent="1" vertex="1">
          <mxGeometry x="266.5" y="1169.5" width="20" height="230" as="geometry" />
        </mxCell>
        <mxCell id="8Wo9BOlvC_cUprFf0G_a-20" value="&lt;font color=&quot;#4a919b&quot; size=&quot;1&quot; style=&quot;&quot;&gt;&lt;b style=&quot;font-size: 40px;&quot;&gt;PracticeTime&lt;/b&gt;&lt;/font&gt;" style="text;html=1;strokeColor=none;fillColor=none;align=center;verticalAlign=middle;whiteSpace=wrap;rounded=0;" parent="1" vertex="1">
          <mxGeometry x="208" y="1315" width="154" height="46" as="geometry" />
        </mxCell>
        <mxCell id="8Wo9BOlvC_cUprFf0G_a-21" value="&lt;font color=&quot;#4a919b&quot; size=&quot;1&quot; style=&quot;&quot;&gt;&lt;b style=&quot;font-size: 40px;&quot;&gt;Age&lt;/b&gt;&lt;/font&gt;" style="text;html=1;strokeColor=none;fillColor=none;align=center;verticalAlign=middle;whiteSpace=wrap;rounded=0;" parent="1" vertex="1">
          <mxGeometry x="401" y="1315" width="154" height="46" as="geometry" />
        </mxCell>
        <mxCell id="8Wo9BOlvC_cUprFf0G_a-22" value="" style="shape=curlyBracket;whiteSpace=wrap;html=1;rounded=1;labelPosition=left;verticalLabelPosition=middle;align=right;verticalAlign=middle;rotation=-90;strokeWidth=5;strokeColor=#4A919B;" parent="1" vertex="1">
          <mxGeometry x="468" y="1199.51" width="20" height="169.98" as="geometry" />
        </mxCell>
        <mxCell id="8Wo9BOlvC_cUprFf0G_a-24" value="&lt;font color=&quot;#c89932&quot; size=&quot;1&quot; style=&quot;&quot;&gt;&lt;b style=&quot;font-size: 40px;&quot;&gt;2.5&lt;/b&gt;&lt;/font&gt;" style="text;html=1;strokeColor=none;fillColor=none;align=center;verticalAlign=middle;whiteSpace=wrap;rounded=0;" parent="1" vertex="1">
          <mxGeometry x="247" y="1057" width="154" height="46" as="geometry" />
        </mxCell>
        <mxCell id="aA7P79PKVV6ushU_fPNP-1" value="&lt;div style=&quot;font-family: Menlo, Monaco, &amp;quot;Courier New&amp;quot;, monospace; line-height: 24px;&quot;&gt;&lt;div style=&quot;&quot;&gt;&lt;font color=&quot;#333333&quot; style=&quot;font-size: 30px;&quot;&gt;tag&lt;/font&gt;&lt;/div&gt;&lt;/div&gt;" style="rounded=1;whiteSpace=wrap;html=1;strokeWidth=5;fontSize=30;strokeColor=none;fillColor=#9AC7BF;align=center;" parent="1" vertex="1">
          <mxGeometry x="563" y="1176" width="57" height="74" as="geometry" />
        </mxCell>
        <mxCell id="aA7P79PKVV6ushU_fPNP-2" value="&lt;div style=&quot;font-family: Menlo, Monaco, &amp;quot;Courier New&amp;quot;, monospace; line-height: 24px;&quot;&gt;&lt;div style=&quot;&quot;&gt;&lt;font color=&quot;#333333&quot; style=&quot;font-size: 30px;&quot;&gt;value&lt;/font&gt;&lt;/div&gt;&lt;/div&gt;" style="rounded=1;whiteSpace=wrap;html=1;strokeWidth=5;fontSize=30;strokeColor=none;fillColor=#FDD276;align=center;" parent="1" vertex="1">
          <mxGeometry x="817" y="1176" width="228" height="74" as="geometry" />
        </mxCell>
        <mxCell id="aA7P79PKVV6ushU_fPNP-3" value="&lt;div style=&quot;font-family: Menlo, Monaco, &amp;quot;Courier New&amp;quot;, monospace; line-height: 24px;&quot;&gt;&lt;div style=&quot;&quot;&gt;&lt;font color=&quot;#333333&quot; style=&quot;font-size: 30px;&quot;&gt;len&lt;/font&gt;&lt;/div&gt;&lt;/div&gt;" style="rounded=1;whiteSpace=wrap;html=1;strokeWidth=5;fontSize=30;strokeColor=none;fillColor=#F19C99;align=center;" parent="1" vertex="1">
          <mxGeometry x="620" y="1176" width="71" height="74" as="geometry" />
        </mxCell>
        <mxCell id="aA7P79PKVV6ushU_fPNP-4" value="&lt;div style=&quot;&quot;&gt;&lt;font style=&quot;font-size: 39px;&quot; color=&quot;#4a919b&quot;&gt;34&amp;nbsp; &amp;nbsp;&lt;/font&gt;&lt;font color=&quot;#f19c99&quot; style=&quot;font-size: 39px;&quot;&gt;4&lt;/font&gt;&lt;font style=&quot;font-size: 39px;&quot; color=&quot;#4a919b&quot;&gt;&amp;nbsp; 10&amp;nbsp; &amp;nbsp;&lt;/font&gt;&lt;font color=&quot;#f19c99&quot; style=&quot;font-size: 39px;&quot;&gt;2&lt;/font&gt;&lt;font style=&quot;font-size: 39px;&quot; color=&quot;#4a919b&quot;&gt;&amp;nbsp; &amp;nbsp;&amp;nbsp;&lt;/font&gt;&lt;font color=&quot;#c89932&quot; style=&quot;font-size: 39px;&quot;&gt;105 100&lt;/font&gt;&lt;br&gt;&lt;/div&gt;" style="text;html=1;strokeColor=none;fillColor=none;align=left;verticalAlign=middle;whiteSpace=wrap;rounded=0;" parent="1" vertex="1">
          <mxGeometry x="566" y="1080" width="450" height="121" as="geometry" />
        </mxCell>
        <mxCell id="aA7P79PKVV6ushU_fPNP-5" value="&lt;div style=&quot;font-family: Menlo, Monaco, &amp;quot;Courier New&amp;quot;, monospace; line-height: 24px;&quot;&gt;&lt;div style=&quot;&quot;&gt;&lt;font color=&quot;#333333&quot; style=&quot;font-size: 30px;&quot;&gt;tag&lt;/font&gt;&lt;/div&gt;&lt;/div&gt;" style="rounded=1;whiteSpace=wrap;html=1;strokeWidth=5;fontSize=30;strokeColor=none;fillColor=#9AC7BF;align=center;" parent="1" vertex="1">
          <mxGeometry x="691" y="1176" width="57" height="74" as="geometry" />
        </mxCell>
        <mxCell id="aA7P79PKVV6ushU_fPNP-6" value="&lt;div style=&quot;font-family: Menlo, Monaco, &amp;quot;Courier New&amp;quot;, monospace; line-height: 24px;&quot;&gt;&lt;div style=&quot;&quot;&gt;&lt;font color=&quot;#333333&quot; style=&quot;font-size: 30px;&quot;&gt;len&lt;/font&gt;&lt;/div&gt;&lt;/div&gt;" style="rounded=1;whiteSpace=wrap;html=1;strokeWidth=5;fontSize=30;strokeColor=none;fillColor=#F19C99;align=center;" parent="1" vertex="1">
          <mxGeometry x="748" y="1176" width="71" height="74" as="geometry" />
        </mxCell>
        <mxCell id="aA7P79PKVV6ushU_fPNP-8" value="&lt;font color=&quot;#4a919b&quot; size=&quot;1&quot; style=&quot;&quot;&gt;&lt;b style=&quot;font-size: 40px;&quot;&gt;Card&lt;/b&gt;&lt;/font&gt;" style="text;html=1;strokeColor=none;fillColor=none;align=center;verticalAlign=middle;whiteSpace=wrap;rounded=0;" parent="1" vertex="1">
          <mxGeometry x="726.42" y="1404" width="154" height="46" as="geometry" />
        </mxCell>
        <mxCell id="aA7P79PKVV6ushU_fPNP-9" value="" style="shape=curlyBracket;whiteSpace=wrap;html=1;rounded=1;labelPosition=left;verticalLabelPosition=middle;align=right;verticalAlign=middle;rotation=-90;strokeWidth=5;strokeColor=#4A919B;" parent="1" vertex="1">
          <mxGeometry x="793.42" y="1142.1" width="20" height="474.81" as="geometry" />
        </mxCell>
        <mxCell id="aA7P79PKVV6ushU_fPNP-10" value="&lt;font size=&quot;1&quot; style=&quot;&quot;&gt;&lt;b style=&quot;font-size: 40px;&quot;&gt;ID&lt;/b&gt;&lt;/font&gt;" style="text;html=1;strokeColor=none;fillColor=none;align=center;verticalAlign=middle;whiteSpace=wrap;rounded=0;fontColor=#5A6EAB;" parent="1" vertex="1">
          <mxGeometry x="789.17" y="1315" width="154" height="46" as="geometry" />
        </mxCell>
        <mxCell id="aA7P79PKVV6ushU_fPNP-11" value="" style="shape=curlyBracket;whiteSpace=wrap;html=1;rounded=1;labelPosition=left;verticalLabelPosition=middle;align=right;verticalAlign=middle;rotation=-90;strokeWidth=5;strokeColor=#5A6EAB;fontColor=#5A6EAB;" parent="1" vertex="1">
          <mxGeometry x="856.17" y="1112.83" width="20" height="346.32" as="geometry" />
        </mxCell>
        <mxCell id="aA7P79PKVV6ushU_fPNP-12" value="&lt;font color=&quot;#c89932&quot; size=&quot;1&quot; style=&quot;&quot;&gt;&lt;b style=&quot;font-size: 40px;&quot;&gt;id&lt;/b&gt;&lt;/font&gt;" style="text;html=1;strokeColor=none;fillColor=none;align=center;verticalAlign=middle;whiteSpace=wrap;rounded=0;" parent="1" vertex="1">
          <mxGeometry x="819" y="1057" width="154" height="46" as="geometry" />
        </mxCell>
      </root>
    </mxGraphModel>
  </diagram>
</mxfile>
